<svg xmlns="http://www.w3.org/2000/svg" width="128" height="128" viewBox="0 0 128 128" fill="none">
  <g fill="#ffffff" transform="translate(8 22) scale(0.11)">
    <path d="m 199.06132,438.31428 15.68056,31.9823 c 9.98266,20.36192 14.97381,30.54078 14.97381,41.70306 0,11.16229 -4.99115,21.34115 -14.97345,41.70307 h -3.6e-4 L 199.06132,585.685 c -44.65064,91.0718 -66.97595,136.6119 -49.56643,159.19283 17.40954,22.58093 58.63503,1.55919 141.08602,-40.48429 L 516.86912,589.00511 c 64.74217,-33.01195 97.11145,-49.52002 97.11145,-77.00547 0,-27.48544 -32.36928,-43.99352 -97.11145,-77.00547 L 290.58127,319.60575 c -82.45099,-42.04307 -123.67684,-63.06481 -141.08638,-40.48304 -17.40952,22.58177 4.91579,68.11809 49.56643,159.19157 z"/>
    <rect width="250" height="86.059822" x="614.5" y="667.69019" ry="70" rx="75"/>
  </g>
</svg>
